<?xml version="1.0" encoding="UTF-8" standalone="no"?><!DOCTYPE svg PUBLIC "-//W3C//DTD SVG 1.1//EN" "http://www.w3.org/Graphics/SVG/1.1/DTD/svg11.dtd"><svg width="100%" height="100%" viewBox="0 0 3200 3200" version="1.1" xmlns="http://www.w3.org/2000/svg" xmlns:xlink="http://www.w3.org/1999/xlink" xml:space="preserve" xmlns:serif="http://www.serif.com/" style="fill-rule:evenodd;clip-rule:evenodd;stroke-linecap:round;stroke-linejoin:round;stroke-miterlimit:1.5;"><g><g><path d="M1591.59,2151.564c-217.44,186.971 -702.281,252.35 -1060.936,-144.291c283.139,-174.271 616.399,-190.465 1060.936,144.291Z" style="fill:none;stroke:#000;stroke-width:47.08px;"/><path d="M1600,2165.527c217.44,186.971 702.281,252.35 1060.936,-144.291c-283.139,-174.271 -616.399,-190.465 -1060.936,144.291Z" style="fill:none;stroke:#000;stroke-width:47.08px;"/><path d="M2208.284,1446.324c-76.445,198.656 -247.274,444.305 -604.247,711.532c34.104,-59.781 65.636,-119.284 94.191,-178.34c-33.824,57.052 -66.547,117.566 -98.227,181.357l0,-74.473c0,0 -2.469,-18.506 -4.731,-50.831c3.705,-45.768 7.964,-130.538 1.026,-233.727c15.241,-200.564 73.42,-465.218 256.908,-649.668c90.282,-90.756 210.901,-162.094 371.67,-196.828c0,0 98.3,192.418 -16.589,490.979Z" style="fill:#ffe4a8;stroke:#000;stroke-width:47.08px;"/><path d="M1333.702,1148.003c191.126,188.9 248.404,464.204 262.093,667.803c-7.569,99.609 -4.548,183.41 -1.026,233.727c-1.913,23.634 -3.679,36.868 -3.679,36.868l0,74.473c-48.52,-97.7 -99.486,-187.715 -153.11,-269.374c34.477,80.744 75.08,162.521 120.737,244.892c-337.737,-258.911 -501.518,-496.742 -575.912,-690.067c-114.889,-298.561 -16.589,-490.979 -16.589,-490.979c158.297,34.2 277.67,103.888 367.485,192.657Z" style="fill:#ffc8ad;stroke:#16394c;stroke-width:47.08px;"/><path d="M2259.266,1899.427c-177.199,129.528 -404.929,227.607 -652.126,260.746c-1.596,0.214 -3.192,0.425 -4.789,0.634c0.563,-0.984 1.124,-1.967 1.685,-2.951c34.104,-59.781 65.636,-119.284 94.191,-178.34c147.441,-248.689 315.819,-431.578 510.057,-533.191c127.376,-66.636 265.873,-98.32 416.88,-90.688c-13.633,187.99 -153.446,388.494 -365.897,543.791Z" style="fill:#57e2d4;stroke:#000;stroke-width:47.08px;"/><path d="M983.306,1432.361c170.551,89.222 321.165,241.106 455.174,445.175c34.477,80.744 75.08,162.521 120.737,244.892c1.621,2.925 3.249,5.851 4.884,8.778c2.792,5 5.602,10.002 8.43,15.006c-247.348,-11.471 -481.293,-116.538 -661.343,-260.377c-198.688,-158.729 -331.746,-364.674 -344.762,-544.162c151.007,-7.632 289.504,24.052 416.88,90.688Z" style="fill:#feb0c1;stroke:#000;stroke-width:47.08px;"/><path d="M1591.59,2151.564c-217.44,186.971 -702.281,252.35 -1060.936,-144.291c283.139,-174.271 616.399,-190.465 1060.936,144.291Z" style="fill:#50b4cd;stroke:#16394c;stroke-width:47.08px;"/><path d="M1600,2165.527c2.383,-1.795 4.763,-3.579 7.14,-5.354c248.687,-185.667 462.465,-261.236 652.126,-260.746c146.644,0.379 278.871,46.227 401.67,121.809c-358.655,396.641 -843.497,331.262 -1060.936,144.291Z" style="fill:#35c8cd;stroke:#16394c;stroke-width:47.08px;"/><path d="M1853.203,1152.174c55.334,251.112 -13.008,533.719 -154.976,827.342c-33.824,57.052 -66.547,117.566 -98.227,181.357l0,-74.473c0,0 -2.469,-18.506 -4.731,-50.831c3.705,-45.768 7.964,-130.538 1.026,-233.727c-7.569,99.609 -4.548,183.41 -1.026,233.727c-1.913,23.634 -3.679,36.868 -3.679,36.868l0,74.473c-48.52,-97.7 -99.486,-187.715 -153.11,-269.374c-112.719,-263.982 -159.96,-516.921 -104.278,-743.497c36.917,-150.217 119.075,-288.846 257.388,-411.421c143.861,127.492 226.972,272.352 261.613,429.556Z" style="fill:#fe969e;stroke:#000;stroke-width:47.08px;"/></g><path d="M1600,2160.873c0.529,-0.579 1.574,0.036 2.351,-0.066c545.719,-71.232 997.736,-459.373 1022.812,-805.171c-434.106,-21.939 -764.83,281.033 -1025.164,805.236c898.327,-670.254 624.873,-1205.527 624.873,-1205.527c-754.036,162.909 -624.873,1131.055 -624.873,1131.055l0,404.945l-8.41,-13.964l0,-404.945c0,0 129.164,-968.146 -624.873,-1131.055c0,0 -273.455,535.273 624.873,1205.527c-260.333,-524.203 -591.058,-827.176 -1025.164,-805.236c25.114,346.312 497.112,791.113 1025.164,805.236m-0,32.582c319.578,-550.883 425.453,-1079.83 0,-1456.873c-425.453,377.043 -319.578,905.989 0,1456.873" style="fill:none;stroke:#16394c;stroke-width:47.08px;"/></g></svg>